<?xml version="1.0" encoding="UTF-8"?><svg id="Layer_1" xmlns="http://www.w3.org/2000/svg" viewBox="0 0 770 284.29"><defs><style>.cls-1,.cls-2,.cls-3{stroke-width:0px;}.cls-2{fill:#fff;}.cls-3{fill:#01e194;}</style></defs><rect class="cls-2" x="0" width="770" height="284.29"/><path class="cls-3" d="M175.02,189.61h-23.1s0-55.99,0-55.99c0-4.58-3.71-8.29-8.29-8.29h-52.93s0-21.19,0-21.19c0-4.58,3.71-8.29,8.29-8.29h63.28c10.56,0,19.13,8.56,19.13,19.13v68.25c0,3.52-2.85,6.38-6.38,6.38Z"/><path class="cls-3" d="M138.87,133.86h-14.98c-2.2,0-4.31.87-5.86,2.43l-24.91,24.91c-1.55,1.55-2.43,3.66-2.43,5.86v14.27c0,4.58,3.71,8.29,8.29,8.29h11.21c2.2,0,4.31-.87,5.86-2.43l24.91-24.91c1.55-1.55,2.43-3.66,2.43-5.86v-18.04c0-2.5-2.02-4.52-4.52-4.52Z"/><path class="cls-1" d="M254.45,170.63h-7.26s0-6.63,0-6.63c-3.98,4.09-9.72,6.63-16.68,6.63-11.6,0-18.89-6.74-18.89-16.35,0-9.83,7.95-15.9,20.65-15.9h13.7v-2.43c0-6.08-3.53-9.61-10.16-9.61-5.63,0-9.61,2.32-14.47,7.51l-7.73-9.17c6.29-7.51,14.25-11.27,23.86-11.27,14.25,0,23.41,8.28,23.41,23.42v27.36c0,3.55-2.88,6.43-6.43,6.43ZM245.97,148.21h-11.71c-4.86,0-7.62,1.88-7.62,5.52s3.09,5.96,7.84,5.96c6.52,0,11.49-4.53,11.49-10.82v-.66ZM272.55,150.97c4.75,4.97,9.94,7.4,15.35,7.4,3.98,0,6.96-1.55,6.96-4.53,0-2.32-1.55-3.2-5.63-4.97l-5.85-2.43c-10.05-4.09-14.91-8.62-14.91-16.68,0-10.27,8.17-16.35,20.1-16.35,8.17,0,14.69,2.76,19.66,8.17l-7.51,9.17c-3.65-3.42-7.73-5.19-12.26-5.19-3.65,0-5.85,1.33-5.85,3.87,0,2.1,1.44,3.09,5.74,4.86l5.3,2.21c10.6,4.31,15.35,8.62,15.35,16.68,0,5.41-1.99,9.72-6.07,12.81-3.98,3.09-9.06,4.64-15.24,4.64-9.61,0-17.67-3.98-22.64-10.6l7.51-9.06ZM319.08,150.97c4.75,4.97,9.94,7.4,15.35,7.4,3.98,0,6.96-1.55,6.96-4.53,0-2.32-1.55-3.2-5.63-4.97l-5.85-2.43c-10.05-4.09-14.91-8.62-14.91-16.68,0-10.27,8.17-16.35,20.1-16.35,8.17,0,14.69,2.76,19.66,8.17l-7.51,9.17c-3.65-3.42-7.73-5.19-12.26-5.19-3.65,0-5.85,1.33-5.85,3.87,0,2.1,1.44,3.09,5.74,4.86l5.3,2.21c10.6,4.31,15.35,8.62,15.35,16.68,0,5.41-1.99,9.72-6.07,12.81-3.98,3.09-9.06,4.64-15.24,4.64-9.61,0-17.67-3.98-22.64-10.6l7.51-9.06ZM375,147c1.77,6.96,7.4,10.82,15.35,10.82,5.41,0,10.49-1.88,15.24-5.52l6.19,10.16c-6.52,5.41-13.81,8.17-21.87,8.17-16.9.33-30.26-12.81-29.93-28.61-.33-15.79,12.81-28.94,28.61-28.61,15.13,0,25.73,11.16,25.73,25.4,0,2.65-.33,5.41-.99,8.17h-38.33ZM399.85,136.5c-.11-6.74-5.3-11.05-11.82-11.05-6.3,0-11.38,4.31-13.03,11.05h24.85ZM457.32,169.31c-3.53.88-6.96,1.33-10.27,1.33-13.81,0-21.87-6.85-21.87-20.54v-22.86s-8.61,0-8.61,0v-12.59s8.61,0,8.61,0v-7.37c0-3.55,2.88-6.43,6.43-6.43h8.48s0,13.81,0,13.81h15.46s0,12.59,0,12.59h-15.46s0,21.54,0,21.54c0,6.19,3.09,8.5,10.16,8.5.88,0,3.2-.11,7.07-.44v12.48ZM514.3,170.32h-3.27s0-8.26,0-8.26c-4.02,5.36-10.38,8.26-18.3,8.26-11.16,0-18.97-5.91-18.97-15.29,0-9.26,7.81-15.18,19.53-15.18h17.19v-4.69c0-8.93-5.02-13.73-13.17-13.73-6.58,0-11.38,2.9-15.85,8.7l-5.69-4.69c4.91-8.03,13.06-11.94,22.1-11.94,12.83,0,21.2,7.81,21.2,22.09v29.94c0,2.63-2.13,4.77-4.77,4.77ZM510.48,146.88h-16.18c-7.59,0-11.72,2.68-11.72,7.7,0,5.47,4.91,8.59,11.27,8.59,8.93,0,16.63-6.58,16.63-14.95v-1.34ZM534.67,93.76h3.83s0,76.56,0,76.56h-8.59s0-71.79,0-71.79c0-2.63,2.13-4.77,4.77-4.77ZM555.11,93.76h3.83s0,76.56,0,76.56h-8.59s0-71.79,0-71.79c0-2.63,2.13-4.77,4.77-4.77ZM577.21,144.54c1,10.71,9.26,17.86,19.98,17.86,6.14,0,11.72-2.45,16.63-7.36l5.02,5.8c-5.69,5.91-13.17,9.49-21.76,9.49-16.18,0-28.79-12.39-28.79-28.34,0-15.74,12.27-28.46,27.79-28.46,14.06,0,24.77,10.15,24.77,24.55,0,2.12-.22,4.24-.67,6.47h-42.96ZM612.03,136.95c-.11-9.71-7.14-15.62-16.18-15.62-9.04,0-16.41,6.25-18.3,15.62h34.48ZM679.3,114.87l-26.78,61.93c-4.13,9.49-10.04,13.73-18.41,13.73-2.79,0-5.58-.34-8.37-1.12v-7.25c2.79.34,5.02.56,6.58.56,5.69,0,9.49-2.12,12.27-8.7l2.9-6.47-22.54-52.67h9.26s17.97,43.3,17.97,43.3l17.97-43.3h9.15Z"/></svg>