<svg xmlns="http://www.w3.org/2000/svg" width="144.083" height="42.074" viewBox="0 0 144.083 42.074"><g transform="translate(-77.72 -72.567)"><g transform="translate(77.72 72.567)"><path d="M181.858,82.85a7.592,7.592,0,0,1,1.4,1.915,5.18,5.18,0,0,1,.54,2.4,5.375,5.375,0,0,1-.418,2.117,5.8,5.8,0,0,1-1.133,1.739,5.919,5.919,0,0,1-1.7,1.241,6.039,6.039,0,0,1-2.117.594h-9.44V73.976h8.47a5.589,5.589,0,0,1,2.05.552,6.169,6.169,0,0,1,1.712,1.227,5.716,5.716,0,0,1,1.173,1.754,5.383,5.383,0,0,1,.432,2.157A5.792,5.792,0,0,1,181.858,82.85Zm-8.874-1.295h3.83a1.871,1.871,0,0,0,1.349-.549,1.882,1.882,0,0,0,.014-2.677,1.959,1.959,0,0,0-1.363-.577h-3.83Zm4.774,7.525a1.908,1.908,0,0,0,1.363-.553,1.81,1.81,0,0,0,.58-1.362,1.843,1.843,0,0,0-.566-1.349,1.972,1.972,0,0,0-1.377-.593h-4.774V89.08Z" transform="translate(-99.07 -72.897)" fill="#fff"/><path d="M232.366,92.856l-3.83-5.826h-2.967v5.826h-4.046V73.976h8.119a6.272,6.272,0,0,1,2.508.512,6.749,6.749,0,0,1,2.077,1.39,6.633,6.633,0,0,1,1.416,2.062,6.525,6.525,0,0,1-.418,5.948,6.581,6.581,0,0,1-2.481,2.36l4.315,6.608Zm-3.156-9.6a2.653,2.653,0,0,0,1.066-.216,2.621,2.621,0,0,0,.863-.594,2.906,2.906,0,0,0,.579-.876,2.735,2.735,0,0,0,0-2.13,2.938,2.938,0,0,0-.579-.877,2.674,2.674,0,0,0-1.929-.809h-3.641v5.5Z" transform="translate(-111.358 -72.897)" fill="#fff"/><path d="M257.214,92.856l-8.038-11.194V92.856h-4.046V73.976h3.722L256.918,85.2V73.976h4.046v18.88Z" transform="translate(-116.88 -72.897)" fill="#fff"/><path d="M95.469,117.077a11.335,11.335,0,0,1-3.386,3.129,8.424,8.424,0,0,1-4.41,1.187,9.6,9.6,0,0,1-3.856-.783,10.034,10.034,0,0,1-5.306-5.3,9.982,9.982,0,0,1-.014-7.754,10.232,10.232,0,0,1,2.117-3.169,10.019,10.019,0,0,1,3.161-2.158,9.632,9.632,0,0,1,3.9-.8,8.5,8.5,0,0,1,4.289,1.079,10.744,10.744,0,0,1,3.317,3.021l-3.371,2.293a8.478,8.478,0,0,0-.729-.984,5.067,5.067,0,0,0-.917-.837,4.373,4.373,0,0,0-1.16-.58,4.5,4.5,0,0,0-1.43-.215,5.289,5.289,0,0,0-2.293.512,6.365,6.365,0,0,0-1.888,1.362,6.262,6.262,0,0,0-1.267,1.983,6.307,6.307,0,0,0,1.267,6.676A6.368,6.368,0,0,0,85.38,117.1a5.289,5.289,0,0,0,2.293.512,4.208,4.208,0,0,0,2.468-.742,6.186,6.186,0,0,0,1.767-1.9Z" transform="translate(-77.72 -79.319)" fill="#fff"/><path d="M114.622,121.723l-3.83-5.826h-2.967v5.826h-4.046V102.842H111.9a6.259,6.259,0,0,1,2.508.513,6.746,6.746,0,0,1,2.077,1.389,6.647,6.647,0,0,1,1.417,2.063,6.529,6.529,0,0,1-.418,5.948,6.579,6.579,0,0,1-2.481,2.36l4.316,6.609Zm-3.156-9.6a2.657,2.657,0,0,0,1.066-.215,2.618,2.618,0,0,0,.863-.594,2.932,2.932,0,0,0,.58-.876,2.736,2.736,0,0,0,0-2.131,2.951,2.951,0,0,0-.58-.876,2.671,2.671,0,0,0-1.928-.809h-3.642v5.5Z" transform="translate(-83.816 -79.649)" fill="#fff"/><path d="M138.9,117.946v3.777H126.951V102.842h11.787v3.776h-7.795v3.776H136.8v3.776h-5.853v3.776Z" transform="translate(-89.236 -79.649)" fill="#fff"/><path d="M157.786,118.54H150.72l-1.026,3.183h-4.369l6.473-18.881h4.936l6.447,18.881h-4.342Zm-1.24-3.776-2.293-7.013-2.293,7.013Z" transform="translate(-93.534 -79.649)" fill="#fff"/><path d="M184.016,106.618H178.54v15.1h-4.046v-15.1h-5.5v-3.776h15.024Z" transform="translate(-99.07 -79.649)" fill="#fff"/><path d="M232.366,121.723l-3.83-5.826h-2.967v5.826h-4.046V102.842h8.119a6.259,6.259,0,0,1,2.508.513,6.746,6.746,0,0,1,2.077,1.389,6.646,6.646,0,0,1,1.416,2.063,6.525,6.525,0,0,1-.418,5.948,6.579,6.579,0,0,1-2.481,2.36l4.315,6.609Zm-3.156-9.6a2.652,2.652,0,0,0,1.066-.215,2.621,2.621,0,0,0,.863-.594,2.916,2.916,0,0,0,.579-.876,2.737,2.737,0,0,0,0-2.131,2.935,2.935,0,0,0-.579-.876,2.674,2.674,0,0,0-1.929-.809h-3.641v5.5Z" transform="translate(-111.358 -79.649)" fill="#fff"/><path d="M261.062,115.684a5.181,5.181,0,0,1-.657,2.71,5.053,5.053,0,0,1-1.754,1.754,8.043,8.043,0,0,1-2.514.957,14.09,14.09,0,0,1-2.9.3,8.3,8.3,0,0,1-4.518-1.213,10.45,10.45,0,0,1-3.169-3.075l3.561-2.1a5.287,5.287,0,0,0,.742.985,5.807,5.807,0,0,0,.984.836,5.293,5.293,0,0,0,1.174.594,3.749,3.749,0,0,0,1.281.229,11.446,11.446,0,0,0,1.187-.067,5.179,5.179,0,0,0,1.214-.27,2.7,2.7,0,0,0,.944-.553,1.226,1.226,0,0,0,.378-.944,1.256,1.256,0,0,0-.31-.863,2.778,2.778,0,0,0-.85-.621,6.476,6.476,0,0,0-1.267-.458q-.729-.188-1.564-.378-1.107-.244-2.32-.607a8.813,8.813,0,0,1-2.225-1.011,5.455,5.455,0,0,1-1.672-1.686,4.871,4.871,0,0,1-.66-2.657,5.575,5.575,0,0,1,2.158-4.531,6.981,6.981,0,0,1,2.211-1.146,8.4,8.4,0,0,1,2.536-.391,7.982,7.982,0,0,1,4.248,1.146,10.808,10.808,0,0,1,3.17,2.954l-3.372,2.292a4.784,4.784,0,0,0-.65-.917,5.865,5.865,0,0,0-.921-.836,5.052,5.052,0,0,0-1.124-.621,3.446,3.446,0,0,0-1.286-.243,4.061,4.061,0,0,0-1.03.135,3.251,3.251,0,0,0-.934.4,2.412,2.412,0,0,0-.69.661,1.5,1.5,0,0,0-.271.876,1.037,1.037,0,0,0,.3.742,2.578,2.578,0,0,0,.8.539,8.14,8.14,0,0,0,1.16.419q.661.188,1.416.377,1.187.3,2.455.688a9.144,9.144,0,0,1,2.319,1.079,5.817,5.817,0,0,1,1.74,1.767A5.027,5.027,0,0,1,261.062,115.684Z" transform="translate(-116.979 -79.328)" fill="#fff"/><path d="M210.571,78.69a10.258,10.258,0,0,0-2.128-3.169,10.1,10.1,0,0,0-3.165-2.158,9.937,9.937,0,0,0-7.757-.014,10.024,10.024,0,0,0-3.165,2.131,10.212,10.212,0,0,0-2.142,3.169A9.938,9.938,0,0,0,192.2,86.4a10.256,10.256,0,0,0,2.128,3.17,10.086,10.086,0,0,0,3.165,2.157,9.894,9.894,0,0,0,7.744.014,10.1,10.1,0,0,0,5.32-5.3,9.933,9.933,0,0,0,.013-7.754Z" transform="translate(-104.316 -72.567)" fill="#fff"/><path d="M210.571,107.556a10.249,10.249,0,0,0-2.128-3.169,10.1,10.1,0,0,0-3.165-2.158,9.928,9.928,0,0,0-7.757-.014,10.024,10.024,0,0,0-3.165,2.131,10.209,10.209,0,0,0-2.142,3.169,9.94,9.94,0,0,0-.014,7.755,10.253,10.253,0,0,0,2.128,3.169,10.072,10.072,0,0,0,3.165,2.157,9.885,9.885,0,0,0,7.744.014,10.1,10.1,0,0,0,5.32-5.3,9.933,9.933,0,0,0,.013-7.754Z" transform="translate(-104.316 -79.319)" fill="#fff"/></g></g></svg>