<svg xmlns="http://www.w3.org/2000/svg" width="213" height="20.98" viewBox="0 0 213 20.98"><title>the-branding-lab-logo</title><path d="M56.83,7.88A4.29,4.29,0,0,0,59.3,4.3c0-2.37-2.07-4.17-4.75-4.17H49.39A.44.44,0,0,0,49,.56V15.48a.43.43,0,0,0,.43.42h5.46c2.74,0,4.91-1.82,4.91-4.35a4.06,4.06,0,0,0-2.93-3.67m-5-5.07h2.41a1.84,1.84,0,0,1,1.94,1.92,1.94,1.94,0,0,1-1.94,2H51.87ZM54.6,13.25H51.87v-4h2.46a2.18,2.18,0,0,1,2.3,1.95,2,2,0,0,1-2,2.06" fill="#fff"/><path d="M183.37,13.55h-5.86V.67a.46.46,0,0,0-.43-.44H175a.44.44,0,0,0-.43.44v15.2a.43.43,0,0,0,.43.43h8.41a.43.43,0,0,0,.43-.43V14a.44.44,0,0,0-.43-.44" fill="#fff"/><path d="M10.46.23H.43A.44.44,0,0,0,0,.67V2.55A.44.44,0,0,0,.43,3H4V15.87a.45.45,0,0,0,.43.43H6.52A.44.44,0,0,0,7,15.87V3h3.51a.44.44,0,0,0,.44-.44V.67a.44.44,0,0,0-.44-.44" fill="#fff"/><path d="M26.33.23H24.22a.44.44,0,0,0-.44.44V6.75H16.3V.67a.44.44,0,0,0-.44-.44H13.73a.46.46,0,0,0-.44.44v15.2a.45.45,0,0,0,.44.43h2.13a.44.44,0,0,0,.44-.43V9.53h7.48v6.34a.43.43,0,0,0,.44.43h2.11a.45.45,0,0,0,.44-.43V.67a.46.46,0,0,0-.44-.44" fill="#fff"/><path d="M40.72.23H31.38a.44.44,0,0,0-.44.44v15.2a.44.44,0,0,0,.44.43h9.34a.44.44,0,0,0,.44-.43V14a.44.44,0,0,0-.44-.44H33.93v-4H39.6A.43.43,0,0,0,40,9.09V7.19a.45.45,0,0,0-.43-.44H33.93V3h6.79a.44.44,0,0,0,.44-.44V.67a.44.44,0,0,0-.44-.44" fill="#fff"/><path d="M193.46.37a.39.39,0,0,0-.39-.25h-.23a.4.4,0,0,0-.39.25l-7.14,15.45a.4.4,0,0,0,.39.6h2a.69.69,0,0,0,.66-.46l4.5-10.08h.07L197.47,16a.67.67,0,0,0,.67.46h2a.4.4,0,0,0,.39-.6Z" fill="#fff"/><path d="M74.38,5.17a5,5,0,0,0-5-4.94H62.81a.44.44,0,0,0-.44.44v15.2a.43.43,0,0,0,.44.43h2.11a.45.45,0,0,0,.44-.43V10H67.9L71,16.1a.37.37,0,0,0,.36.2h2.41a.43.43,0,0,0,.39-.66L71,9.81a5.08,5.08,0,0,0,3.4-4.64M69.12,7.56H65.38V3h3.74a2.28,2.28,0,0,1,2.27,2.22,2.35,2.35,0,0,1-2.27,2.35" fill="#fff"/><path d="M84.34.26A.39.39,0,0,0,84,0h-.23a.41.41,0,0,0-.39.26L76.2,15.7a.4.4,0,0,0,.38.6h2a.69.69,0,0,0,.67-.46L83.74,5.76h.08l4.54,10.08a.66.66,0,0,0,.66.46h2a.41.41,0,0,0,.39-.6Z" fill="#fff"/><path d="M106.94.23h-2.11a.44.44,0,0,0-.44.44v9.48h0L94.82,0h-.57a.43.43,0,0,0-.44.42V15.87a.45.45,0,0,0,.44.43h2.09a.43.43,0,0,0,.43-.43V6h0l9.59,10.53h.55a.43.43,0,0,0,.44-.41V.67a.46.46,0,0,0-.44-.44" fill="#fff"/><path d="M117.41.23H112a.44.44,0,0,0-.41.44v15.2a.43.43,0,0,0,.41.43h5.44a8,8,0,1,0,0-16.07m-.27,13.27h-2.61V3h2.61a5.07,5.07,0,0,1,5.17,5.24,5.07,5.07,0,0,1-5.17,5.25" fill="#fff"/><path d="M131.08.23H129a.46.46,0,0,0-.44.44v15.2a.45.45,0,0,0,.44.43h2.13a.45.45,0,0,0,.44-.43V.67a.46.46,0,0,0-.44-.44" fill="#fff"/><path d="M148.82.23h-2.11a.44.44,0,0,0-.43.44v9.48h0L136.7,0h-.57a.42.42,0,0,0-.43.42V15.87a.44.44,0,0,0,.43.43h2.09a.44.44,0,0,0,.44-.43V6h0l9.6,10.53h.54a.43.43,0,0,0,.44-.41V.67a.45.45,0,0,0-.44-.44" fill="#fff"/><path d="M166,8.34h-4.41a.41.41,0,0,0-.43.43v1.81a.41.41,0,0,0,.43.42h1.84V13a7,7,0,0,1-2.73.57,5.22,5.22,0,0,1-5.17-5.25,5.27,5.27,0,0,1,5.15-5.33,5.19,5.19,0,0,1,3.46,1.33.39.39,0,0,0,.6,0l1.43-1.49a.45.45,0,0,0,0-.64A8.68,8.68,0,0,0,160.54,0a8.26,8.26,0,0,0,0,16.51A11.59,11.59,0,0,0,166.23,15a.46.46,0,0,0,.19-.37V8.77a.44.44,0,0,0-.42-.43" fill="#fff"/><path d="M210,8.13a4.36,4.36,0,0,0,2.52-3.65c0-2.41-2.11-4.25-4.84-4.25h-5.26a.44.44,0,0,0-.44.44v15.2a.44.44,0,0,0,.44.43H208c2.8,0,5-1.86,5-4.43a4.13,4.13,0,0,0-3-3.74M205,3h2.45a1.88,1.88,0,0,1,2,2,2,2,0,0,1-2,2.06H205Zm2.78,10.63H205V9.51h2.5a2.22,2.22,0,0,1,2.34,2,2.05,2.05,0,0,1-2.06,2.09" fill="#fff"/><path d="M59.38,21a.33.33,0,0,0,.33-.32v-1.9a.32.32,0,0,0-.32-.32H49.28a.32.32,0,0,0-.32.32v1.9a.33.33,0,0,0,.33.32Z" fill="#fff"/></svg>